<svg id="图层_1" data-name="图层 1" xmlns="http://www.w3.org/2000/svg" viewBox="0 0 58 58">
    <defs>
        <style>.cls-1,.cls-2{fill:#111c78;}.cls-1{opacity:0.1;}</style>
    </defs>
    <title>customerCenter_on</title>
    <path class="cls-1" d="M29,0A29,29,0,1,1,0,29,29,29,0,0,1,29,0Z" transform="translate(0 0)"/>
    <path class="cls-2" d="M37.32,42l-.88.26a.51.51,0,0,0-.33.6l1.16,4.79a.46.46,0,0,0,.56.35l.88-.25a.5.5,0,0,0,.32-.61l-1.15-4.78A.46.46,0,0,0,37.32,42Z"
          transform="translate(0 0)"/>
    <path class="cls-2" d="M30.53,42l.93.26a.5.5,0,0,1,.35.61l-1.23,4.83A.48.48,0,0,1,30,48l-.94-.25a.51.51,0,0,1-.34-.62l1.23-4.83A.48.48,0,0,1,30.53,42Z"
          transform="translate(0 0)"/>
    <path class="cls-2"
          d="M32.39,28c3.21,0,5.83,2.92,5.83,6.5S35.6,41,32.39,41a5.46,5.46,0,0,1-3.89-1.68L27,38.74h-.68a26.13,26.13,0,0,1-4.94-.47C14.75,37,10.46,33.82,9.94,32.62c.52-.74,3.38-2.35,8-2.35a20.91,20.91,0,0,1,3.77.35,22.8,22.8,0,0,1,3.53,1l2.39-.82A5.7,5.7,0,0,1,32.39,28m0-2a7.67,7.67,0,0,0-6.48,3.73,24.77,24.77,0,0,0-3.85-1.07,22.33,22.33,0,0,0-4.14-.39c-5.57,0-9.72,2.17-10,4.09-.35,2.37,5.57,6.45,13.12,7.88a29,29,0,0,0,5.31.5h.73A7.45,7.45,0,0,0,32.39,43c4.32,0,7.83-3.8,7.83-8.5S36.71,26,32.39,26Z"
          transform="translate(0 0)"/>
    <path class="cls-2"
          d="M38.84,10.37h0a23.86,23.86,0,0,1,8.73,1.93c-.81,3-3.09,9.65-7.82,12.07a19.7,19.7,0,0,1-8.7,2.37c-2.14,0-4.94-.56-6.14-3.2a5.23,5.23,0,0,1,0-4.23c1.23-3.17,4.66-6.18,9.16-8.07a12.16,12.16,0,0,1,4.73-.87m0-2a14.09,14.09,0,0,0-5.5,1c-8,3.34-12.58,9.87-10.25,15,1.37,3,4.37,4.37,8,4.37a21.71,21.71,0,0,0,9.61-2.59c7.13-3.65,9.24-15,9.24-15a26.84,26.84,0,0,0-11.06-2.8Z"
          transform="translate(0 0)"/>
</svg>