<svg id="图层_1" data-name="图层 1" xmlns="http://www.w3.org/2000/svg" viewBox="0 0 58 58">
    <defs>
        <style>.cls-1,.cls-2{fill:#111c78;}.cls-1{opacity:0.1;}</style>
    </defs>
    <title>loveLife_on</title>
    <path class="cls-1" d="M29,0A29,29,0,1,1,0,29,29,29,0,0,1,29,0Z" transform="translate(0 0)"/>
    <path class="cls-2"
          d="M29.12,10.58c3.76,0,7.76,3.61,11.9,10.72C46,29.91,47.4,36.7,45,40.92c-2.17,3.77-7.51,5.69-15.85,5.69s-13.68-1.92-15.85-5.69c-2.43-4.22-1.06-11,3.95-19.62,4.14-7.11,8.14-10.72,11.9-10.72m0-2q-6.81,0-13.63,11.71c-9.08,15.62-8,28.32,13.63,28.32s22.71-12.7,13.63-28.32Q35.94,8.59,29.12,8.58Z"
          transform="translate(0 0)"/>
    <path class="cls-2" d="M35,31a2,2,0,0,1,2,2V45c0,.47-.58,2-8,2s-8-1.53-8-2V33a2,2,0,0,1,2-2H35m0-2H23a4,4,0,0,0-4,4V45c0,4,7.33,4,10,4s10,0,10-4V33a4,4,0,0,0-4-4Z"
          transform="translate(0 0)"/>
</svg>