<svg id="图层_1" data-name="图层 1" xmlns="http://www.w3.org/2000/svg" viewBox="0 0 58 58">
    <defs>
        <style>.cls-1,.cls-2{fill:#111c78;}.cls-1{opacity:0.1;}.cls-3{fill:none;stroke:#111c78;stroke-linecap:square;stroke-linejoin:bevel;stroke-width:2px;}</style>
    </defs>
    <title>shoppingCart_on</title>
    <path class="cls-1" d="M29,0A29,29,0,1,1,0,29,29,29,0,0,1,29,0Z" transform="translate(0 0)"/>
    <path class="cls-2" d="M39,46a1,1,0,1,1-1,1,1,1,0,0,1,1-1m0-2a3,3,0,1,0,3,3,3,3,0,0,0-3-3Z" transform="translate(0 0)"/>
    <path class="cls-2" d="M23,46a1,1,0,1,1-1,1,1,1,0,0,1,1-1m0-2a3,3,0,1,0,3,3,3,3,0,0,0-3-3Z" transform="translate(0 0)"/>
    <path class="cls-2" d="M37,23a1,1,0,0,0-1,1v9a1,1,0,0,0,2,0V24a1,1,0,0,0-1-1Z" transform="translate(0 0)"/>
    <path class="cls-2" d="M30,23a1,1,0,0,0-1,1v9a1,1,0,0,0,2,0V24a1,1,0,0,0-1-1Z" transform="translate(0 0)"/>
    <path class="cls-2" d="M23,23a1,1,0,0,0-1,1v9a1,1,0,0,0,2,0V24a1,1,0,0,0-1-1Z" transform="translate(0 0)"/>
    <path class="cls-3" d="M14,9c0,7.08,4.28,6,7,6H41a6,6,0,0,1,6,6L44,36a6,6,0,0,1-6,6H20" transform="translate(0 0)"/>
</svg>